# Blender v2.93.0 OBJ File: 'models.blend'
# www.blender.org
o Plane.002_Plane.003
v -1.000000 0.000000 1.000000
v 15.000000 0.000000 1.000000
v -1.000000 0.000000 -15.000000
v 15.000000 0.000000 -15.000000
v -1.560000 0.000000 1.560000
v 15.560000 0.000000 1.560000
v -1.560000 0.000000 -15.560000
v 15.560000 0.000000 -15.560000
v -2.416000 -1.000000 2.416000
v 16.416000 -1.000000 2.416000
v -2.416000 -1.000000 -16.416000
v 16.416000 -1.000000 -16.416000
v -1.000000 0.000000 -15.000000
v -1.000000 0.000000 1.000000
v 15.000000 0.000000 1.000000
v 15.000000 0.000000 -15.000000
v 15.745520 -0.216728 1.405217
v 16.230482 -0.783272 1.890180
v 16.230482 -0.783272 -15.890180
v 15.745520 -0.216728 -15.405217
v -1.745519 -0.216728 -15.405217
v -2.230481 -0.783272 -15.890180
v -2.230482 -0.783272 1.890180
v -1.745519 -0.216728 1.405217
v 15.405217 -0.216728 -15.745520
v 15.890180 -0.783272 -16.230482
v -1.890180 -0.783272 -16.230482
v -1.405217 -0.216728 -15.745520
v -1.405217 -0.216728 1.745519
v -1.890180 -0.783272 2.230481
v 15.890180 -0.783272 2.230482
v 15.405217 -0.216728 1.745519
v 16.145672 -0.855870 1.890180
v 15.660709 -0.289325 1.405217
v 15.660709 -0.289325 -15.405217
v 16.145672 -0.855870 -15.890180
v -2.145671 -0.855870 -15.890180
v -1.660709 -0.289325 -15.405217
v -1.660709 -0.289325 1.405217
v -2.145671 -0.855870 1.890180
v 15.405217 -0.289325 -15.660709
v 15.890180 -0.855870 -16.145672
v -1.405217 -0.289325 -15.660709
v -1.890180 -0.855870 -16.145672
v -1.405217 -0.289325 1.660709
v -1.890180 -0.855870 2.145671
v 15.405217 -0.289325 1.660709
v 15.890180 -0.855870 2.145671
v 4.333333 0.000000 1.000000
v 9.666666 0.000000 1.000000
v 4.146667 0.000000 1.560000
v 9.853333 0.000000 1.560000
v 3.861333 -1.000000 2.416000
v 10.138666 -1.000000 2.416000
v 4.333333 0.000000 1.000000
v 9.666666 0.000000 1.000000
v 4.198261 -0.216728 1.745519
v 9.801739 -0.216728 1.745519
v 4.036607 -0.783272 2.230481
v 9.963393 -0.783272 2.230482
v 4.198261 -0.289325 1.660709
v 9.801739 -0.289325 1.660709
v 4.036607 -0.855870 2.145671
v 9.963393 -0.855870 2.145671
v -1.000000 0.000000 -9.666666
v -1.000000 0.000000 -4.333333
v -1.560000 0.000000 -9.853333
v -1.560000 0.000000 -4.146667
v -2.416000 -1.000000 -10.138666
v -2.416000 -1.000000 -3.861333
v -1.000000 0.000000 -9.666666
v -1.000000 0.000000 -4.333333
v -1.745519 -0.216728 -9.801739
v -1.745519 -0.216728 -4.198261
v -2.230481 -0.783272 -9.963393
v -2.230482 -0.783272 -4.036607
v -1.660709 -0.289325 -9.801739
v -1.660709 -0.289325 -4.198261
v -2.145671 -0.855870 -9.963393
v -2.145671 -0.855870 -4.036607
v 9.666666 0.000000 -15.000000
v 4.333333 0.000000 -15.000000
v 9.853333 0.000000 -15.560000
v 4.146667 0.000000 -15.560000
v 10.138666 -1.000000 -16.416000
v 3.861333 -1.000000 -16.416000
v 9.666666 0.000000 -15.000000
v 4.333333 0.000000 -15.000000
v 9.801739 -0.216728 -15.745520
v 4.198261 -0.216728 -15.745520
v 9.963393 -0.783272 -16.230482
v 4.036607 -0.783272 -16.230482
v 9.801739 -0.289325 -15.660709
v 4.198261 -0.289325 -15.660709
v 9.963393 -0.855870 -16.145672
v 4.036607 -0.855870 -16.145672
v 15.000000 0.000000 -4.333333
v 15.000000 0.000000 -9.666666
v 15.560000 0.000000 -4.146667
v 15.560000 0.000000 -9.853333
v 16.416000 -1.000000 -3.861333
v 16.416000 -1.000000 -10.138666
v 15.000000 0.000000 -4.333333
v 15.000000 0.000000 -9.666666
v 15.745520 -0.216728 -4.198261
v 15.745520 -0.216728 -9.801739
v 16.230482 -0.783272 -4.036607
v 16.230482 -0.783272 -9.963393
v 15.660709 -0.289325 -4.198261
v 15.660709 -0.289325 -9.801739
v 16.145672 -0.855870 -4.036607
v 16.145672 -0.855870 -9.963393
vt 1.000000 0.333333
vt 1.000000 0.333333
vt 1.000000 0.000000
vt 1.000000 0.000000
vt 0.000000 0.660391
vt 0.000000 0.981173
vt 0.000000 0.981173
vt 0.000000 0.660391
vt 1.000000 0.666667
vt 1.000000 0.666667
vt 1.000000 1.000000
vt 1.000000 1.000000
vt 0.000000 0.333333
vt 0.000000 0.333333
vt 0.000000 0.000000
vt 0.000000 0.000000
vt 0.333333 1.000000
vt 0.333333 1.000000
vt 0.000000 1.000000
vt 0.000000 1.000000
vt 0.666667 0.000000
vt 0.666667 0.000000
vt 1.000000 0.000000
vt 0.018344 0.000000
vt 0.339448 0.000000
vt 0.339448 0.000000
vt 0.018344 0.000000
vt 0.981173 1.000000
vt 0.981656 1.000000
vt 0.981656 1.000000
vt 0.981173 1.000000
vt 1.000000 0.339609
vt 1.000000 0.018827
vt 1.000000 0.018827
vt 1.000000 0.339609
vt 0.000000 0.981656
vt 0.000000 0.981656
vt 0.000000 0.666667
vt 0.000000 0.666667
vt 0.000000 1.000000
vt 0.666667 1.000000
vt 0.666667 1.000000
vt 1.000000 1.000000
vt 0.333333 0.000000
vt 0.333333 0.000000
vt 0.000000 0.000000
vt 1.000000 0.000000
vt 1.000000 0.018344
vt 1.000000 0.666667
vt 1.000000 1.000000
vt 1.000000 0.981656
vt 1.000000 0.660552
vt 1.000000 0.981173
vt 1.000000 0.333333
vt 0.000000 1.000000
vt 0.000000 0.333333
vt 0.000000 0.000000
vt 0.000000 0.018344
vt 0.000000 0.339448
vt 0.000000 0.018827
vt 0.000000 0.666667
vt 0.333333 1.000000
vt 0.018344 1.000000
vt 0.339448 1.000000
vt 0.018827 1.000000
vt 0.666667 1.000000
vt 0.660391 1.000000
vt 0.018827 0.000000
vt 0.666667 0.000000
vt 0.981656 0.000000
vt 0.660552 0.000000
vt 0.981173 0.000000
vt 0.333333 0.000000
vt 0.339609 0.000000
vt 1.000000 0.660391
vt 1.000000 0.660552
vt 1.000000 0.981656
vt 1.000000 0.981173
vt 0.000000 0.339609
vt 0.000000 0.339448
vt 0.000000 0.018344
vt 0.000000 0.018827
vt 0.339609 1.000000
vt 0.339448 1.000000
vt 0.018344 1.000000
vt 0.018827 1.000000
vt 0.660391 0.000000
vt 0.660552 0.000000
vt 0.981656 0.000000
vt 0.981173 0.000000
vt 0.018827 0.000000
vt 0.660391 1.000000
vt 0.339609 0.000000
vt 1.000000 0.018344
vt 0.660391 0.000000
vt 0.333333 0.000000
vt 0.666667 0.000000
vt 0.000000 0.660552
vt 0.000000 0.660552
vt 0.000000 0.339609
vt 0.000000 0.666667
vt 0.000000 0.333333
vt 0.660552 1.000000
vt 0.660552 1.000000
vt 0.339609 1.000000
vt 0.666667 1.000000
vt 0.333333 1.000000
vt 1.000000 0.339448
vt 1.000000 0.339448
vt 1.000000 0.660391
vt 1.000000 0.333333
vt 1.000000 0.666667
vn 0.0000 0.0000 1.0000
vn -0.6503 -0.7597 0.0000
vn 0.0000 1.0000 0.0000
vn 0.0000 0.7597 -0.6503
vn -0.8383 -0.4141 -0.3545
vn 0.6503 -0.7597 0.0000
vn -0.3545 -0.4142 0.8383
vn 0.7597 0.6503 0.0000
vn -0.7597 0.6503 0.0000
vn -0.0000 0.6503 -0.7597
vn 0.0000 0.6503 0.7597
vn 0.8383 -0.4141 0.3545
vn -0.6503 0.7597 0.0000
vn 0.0000 -0.7597 -0.6503
vn 0.6503 0.7597 0.0000
vn 0.0000 -0.7597 0.6503
vn 0.3545 -0.4141 0.8383
vn 0.0000 0.7597 0.6503
vn -0.3545 -0.4141 -0.8383
vn 0.8383 -0.4142 -0.3545
vn -0.8383 -0.4141 0.3545
vn 0.3545 -0.4141 -0.8383
s off
f 97/1/1 103/2/1 15/3/1 2/4/1
f 73/5/2 21/6/2 38/7/2 77/8/2
f 98/9/3 100/10/3 8/11/3 4/12/3
f 66/13/3 68/14/3 5/15/3 1/16/3
f 82/17/3 84/18/3 7/19/3 3/20/3
f 50/21/3 52/22/3 6/23/3 2/4/3
f 30/24/4 59/25/4 63/26/4 46/27/4
f 25/28/5 26/29/5 42/30/5 41/31/5
f 105/32/6 17/33/6 34/34/6 109/35/6
f 21/6/7 22/36/7 37/37/7 38/7/7
f 65/38/1 71/39/1 13/40/1 3/20/1
f 81/41/1 87/42/1 16/43/1 4/12/1
f 49/44/1 55/45/1 14/46/1 1/16/1
f 6/23/8 10/47/8 18/48/8 17/33/8
f 102/49/8 12/50/8 19/51/8 108/52/8
f 12/50/8 8/11/8 20/53/8 19/51/8
f 99/54/8 6/23/8 17/33/8 105/32/8
f 7/19/9 11/55/9 22/36/9 21/6/9
f 70/56/9 9/57/9 23/58/9 76/59/9
f 9/57/9 5/15/9 24/60/9 23/58/9
f 67/61/9 7/19/9 21/6/9 73/5/9
f 8/11/10 12/50/10 26/29/10 25/28/10
f 86/62/10 11/55/10 27/63/10 92/64/10
f 11/55/10 7/19/10 28/65/10 27/63/10
f 83/66/10 8/11/10 25/28/10 89/67/10
f 5/15/11 9/57/11 30/24/11 29/68/11
f 54/69/11 10/47/11 31/70/11 60/71/11
f 10/47/11 6/23/11 32/72/11 31/70/11
f 51/73/11 5/15/11 29/68/11 57/74/11
f 110/75/8 112/76/8 36/77/8 35/78/8
f 78/79/9 80/80/9 40/81/9 39/82/9
f 94/83/10 96/84/10 44/85/10 43/86/10
f 62/87/11 64/88/11 48/89/11 47/90/11
f 29/68/12 30/24/12 46/27/12 45/91/12
f 108/52/13 19/51/13 36/77/13 112/76/13
f 89/67/14 25/28/14 41/31/14 93/92/14
f 76/59/15 23/58/15 40/81/15 80/80/15
f 57/74/16 29/68/16 45/91/16 61/93/16
f 19/51/17 20/53/17 35/78/17 36/77/17
f 92/64/18 27/63/18 44/85/18 96/84/18
f 23/58/19 24/60/19 39/82/19 40/81/19
f 60/71/4 31/70/4 48/89/4 64/88/4
f 27/63/20 28/65/20 43/86/20 44/85/20
f 31/70/21 32/72/21 47/90/21 48/89/21
f 17/33/22 18/48/22 33/94/22 34/34/22
f 59/25/4 60/71/4 64/88/4 63/26/4
f 32/72/16 58/95/16 62/87/16 47/90/16
f 58/95/16 57/74/16 61/93/16 62/87/16
f 45/91/11 46/27/11 63/26/11 61/93/11
f 61/93/11 63/26/11 64/88/11 62/87/11
f 6/23/11 52/22/11 58/95/11 32/72/11
f 52/22/11 51/73/11 57/74/11 58/95/11
f 9/57/11 53/96/11 59/25/11 30/24/11
f 53/96/11 54/69/11 60/71/11 59/25/11
f 2/4/1 15/3/1 56/97/1 50/21/1
f 50/21/1 56/97/1 55/45/1 49/44/1
f 1/16/3 5/15/3 51/73/3 49/44/3
f 49/44/3 51/73/3 52/22/3 50/21/3
f 22/36/15 75/98/15 79/99/15 37/37/15
f 75/98/15 76/59/15 80/80/15 79/99/15
f 38/7/9 37/37/9 79/99/9 77/8/9
f 77/8/9 79/99/9 80/80/9 78/79/9
f 5/15/9 68/14/9 74/100/9 24/60/9
f 68/14/9 67/61/9 73/5/9 74/100/9
f 11/55/9 69/101/9 75/98/9 22/36/9
f 69/101/9 70/56/9 76/59/9 75/98/9
f 1/16/1 14/46/1 72/102/1 66/13/1
f 66/13/1 72/102/1 71/39/1 65/38/1
f 3/20/3 7/19/3 67/61/3 65/38/3
f 65/38/3 67/61/3 68/14/3 66/13/3
f 24/60/2 74/100/2 78/79/2 39/82/2
f 74/100/2 73/5/2 77/8/2 78/79/2
f 26/29/18 91/103/18 95/104/18 42/30/18
f 91/103/18 92/64/18 96/84/18 95/104/18
f 28/65/14 90/105/14 94/83/14 43/86/14
f 90/105/14 89/67/14 93/92/14 94/83/14
f 41/31/10 42/30/10 95/104/10 93/92/10
f 93/92/10 95/104/10 96/84/10 94/83/10
f 7/19/10 84/18/10 90/105/10 28/65/10
f 84/18/10 83/66/10 89/67/10 90/105/10
f 12/50/10 85/106/10 91/103/10 26/29/10
f 85/106/10 86/62/10 92/64/10 91/103/10
f 3/20/1 13/40/1 88/107/1 82/17/1
f 82/17/1 88/107/1 87/42/1 81/41/1
f 4/12/3 8/11/3 83/66/3 81/41/3
f 81/41/3 83/66/3 84/18/3 82/17/3
f 18/48/13 107/108/13 111/109/13 33/94/13
f 107/108/13 108/52/13 112/76/13 111/109/13
f 34/34/8 33/94/8 111/109/8 109/35/8
f 109/35/8 111/109/8 112/76/8 110/75/8
f 8/11/8 100/10/8 106/110/8 20/53/8
f 100/10/8 99/54/8 105/32/8 106/110/8
f 10/47/8 101/111/8 107/108/8 18/48/8
f 101/111/8 102/49/8 108/52/8 107/108/8
f 20/53/6 106/110/6 110/75/6 35/78/6
f 106/110/6 105/32/6 109/35/6 110/75/6
f 2/4/3 6/23/3 99/54/3 97/1/3
f 97/1/3 99/54/3 100/10/3 98/9/3
f 4/12/1 16/43/1 104/112/1 98/9/1
f 98/9/1 104/112/1 103/2/1 97/1/1
