# Blender v2.93.0 OBJ File: 'models.blend'
# www.blender.org
o Piece_Cylinder
v -0.000000 0.000000 -0.792000
v 0.154512 0.000000 -0.776782
v 0.303085 0.000000 -0.731713
v 0.440012 0.000000 -0.658524
v 0.560029 0.000000 -0.560029
v 0.658524 0.000000 -0.440012
v 0.731713 0.000000 -0.303085
v 0.776782 0.000000 -0.154512
v 0.792000 0.000000 0.000000
v 0.776782 0.000000 0.154512
v 0.731713 0.000000 0.303085
v 0.658524 0.000000 0.440012
v 0.560029 0.000000 0.560029
v 0.440012 0.000000 0.658524
v 0.303085 0.000000 0.731713
v 0.154512 0.000000 0.776782
v -0.000000 0.000000 0.792000
v -0.154511 0.000000 0.776782
v -0.303085 0.000000 0.731713
v -0.440012 0.000000 0.658524
v -0.560029 0.000000 0.560029
v -0.658524 0.000000 0.440012
v -0.731713 0.000000 0.303085
v -0.776782 0.000000 0.154512
v -0.792000 0.000000 -0.000000
v -0.776782 0.000000 -0.154512
v -0.731713 0.000000 -0.303085
v -0.658524 0.000000 -0.440012
v -0.560029 0.000000 -0.560029
v -0.440012 0.000000 -0.658524
v -0.303085 0.000000 -0.731713
v -0.154511 0.000000 -0.776782
v -0.000000 -0.120000 -0.765134
v -0.000000 -0.079490 -0.792000
v -0.000000 0.120000 -0.765134
v -0.000000 0.079490 -0.792000
v 0.149270 -0.120000 -0.750432
v 0.154512 -0.079490 -0.776782
v 0.149270 0.120000 -0.750432
v 0.154512 0.079490 -0.776782
v 0.292804 -0.120000 -0.706892
v 0.303085 -0.079490 -0.731713
v 0.292804 0.120000 -0.706892
v 0.303085 0.079490 -0.731713
v 0.425086 -0.120000 -0.636186
v 0.440012 -0.079490 -0.658524
v 0.425086 0.120000 -0.636186
v 0.440012 0.079490 -0.658524
v 0.541031 -0.120000 -0.541031
v 0.560029 -0.079490 -0.560029
v 0.541031 0.120000 -0.541031
v 0.560029 0.079490 -0.560029
v 0.636186 -0.120000 -0.425086
v 0.658524 -0.079490 -0.440012
v 0.636186 0.120000 -0.425086
v 0.658524 0.079490 -0.440012
v 0.706892 -0.120000 -0.292804
v 0.731713 -0.079490 -0.303085
v 0.706892 0.120000 -0.292804
v 0.731713 0.079490 -0.303085
v 0.750432 -0.120000 -0.149270
v 0.776782 -0.079490 -0.154512
v 0.750432 0.120000 -0.149270
v 0.776782 0.079490 -0.154512
v 0.765134 -0.120000 0.000000
v 0.792000 -0.079490 0.000000
v 0.765134 0.120000 0.000000
v 0.792000 0.079490 0.000000
v 0.750432 -0.120000 0.149270
v 0.776782 -0.079490 0.154512
v 0.750432 0.120000 0.149270
v 0.776782 0.079490 0.154512
v 0.706892 -0.120000 0.292804
v 0.731713 -0.079490 0.303085
v 0.706892 0.120000 0.292804
v 0.731713 0.079490 0.303085
v 0.636186 -0.120000 0.425086
v 0.658524 -0.079490 0.440012
v 0.636186 0.120000 0.425086
v 0.658524 0.079490 0.440012
v 0.541031 -0.120000 0.541031
v 0.560029 -0.079490 0.560029
v 0.541031 0.120000 0.541031
v 0.560029 0.079490 0.560029
v 0.425086 -0.120000 0.636186
v 0.440012 -0.079490 0.658524
v 0.425086 0.120000 0.636186
v 0.440012 0.079490 0.658524
v 0.292804 -0.120000 0.706892
v 0.303085 -0.079490 0.731713
v 0.292804 0.120000 0.706892
v 0.303085 0.079490 0.731713
v 0.149270 -0.120000 0.750432
v 0.154512 -0.079490 0.776782
v 0.149270 0.120000 0.750432
v 0.154512 0.079490 0.776782
v -0.000000 -0.120000 0.765134
v -0.000000 -0.079490 0.792000
v -0.000000 0.120000 0.765134
v -0.000000 0.079490 0.792000
v -0.149270 -0.120000 0.750432
v -0.154511 -0.079490 0.776782
v -0.149270 0.120000 0.750432
v -0.154511 0.079490 0.776782
v -0.292804 -0.120000 0.706892
v -0.303085 -0.079490 0.731713
v -0.292804 0.120000 0.706892
v -0.303085 0.079490 0.731713
v -0.425086 -0.120000 0.636186
v -0.440012 -0.079490 0.658524
v -0.425086 0.120000 0.636186
v -0.440012 0.079490 0.658524
v -0.541031 -0.120000 0.541031
v -0.560029 -0.079490 0.560029
v -0.541031 0.120000 0.541031
v -0.560029 0.079490 0.560029
v -0.636186 -0.120000 0.425086
v -0.658524 -0.079490 0.440012
v -0.636186 0.120000 0.425086
v -0.658524 0.079490 0.440012
v -0.706892 -0.120000 0.292804
v -0.731713 -0.079490 0.303085
v -0.706892 0.120000 0.292804
v -0.731713 0.079490 0.303085
v -0.750432 -0.120000 0.149270
v -0.776782 -0.079490 0.154512
v -0.750432 0.120000 0.149270
v -0.776782 0.079490 0.154512
v -0.765134 -0.120000 -0.000000
v -0.792000 -0.079490 -0.000000
v -0.765134 0.120000 -0.000000
v -0.792000 0.079490 -0.000000
v -0.750432 -0.120000 -0.149270
v -0.776782 -0.079490 -0.154512
v -0.750432 0.120000 -0.149270
v -0.776782 0.079490 -0.154512
v -0.706892 -0.120000 -0.292804
v -0.731713 -0.079490 -0.303085
v -0.706892 0.120000 -0.292804
v -0.731713 0.079490 -0.303085
v -0.636186 -0.120000 -0.425086
v -0.658524 -0.079490 -0.440012
v -0.636186 0.120000 -0.425086
v -0.658524 0.079490 -0.440012
v -0.541032 -0.120000 -0.541031
v -0.560029 -0.079490 -0.560029
v -0.541032 0.120000 -0.541031
v -0.560029 0.079490 -0.560029
v -0.425086 -0.120000 -0.636186
v -0.440012 -0.079490 -0.658524
v -0.425086 0.120000 -0.636186
v -0.440012 0.079490 -0.658524
v -0.292804 -0.120000 -0.706892
v -0.303085 -0.079490 -0.731713
v -0.292804 0.120000 -0.706892
v -0.303085 0.079490 -0.731713
v -0.149270 -0.120000 -0.750432
v -0.154511 -0.079490 -0.776782
v -0.149270 0.120000 -0.750432
v -0.154511 0.079490 -0.776782
vt 0.168289 0.944766
vt 0.176606 0.930135
vt 0.221024 0.949242
vt 0.215805 0.965251
vt 0.547377 0.494117
vt 0.536765 0.507248
vt 0.499581 0.471093
vt 0.512589 0.460341
vt 0.470338 0.428309
vt 0.485214 0.420383
vt 0.450282 0.380551
vt 0.466436 0.375767
vt 0.440180 0.329772
vt 0.456933 0.328281
vt 0.440181 0.278231
vt 0.457061 0.279748
vt 0.448594 0.227161
vt 0.464840 0.231699
vt 0.466966 0.178638
vt 0.482003 0.186306
vt 0.494655 0.134790
vt 0.507843 0.145310
vt 0.530559 0.097392
vt 0.541390 0.110338
vt 0.573195 0.067847
vt 0.581228 0.082692
vt 0.620880 0.047418
vt 0.625827 0.063590
vt 0.671748 0.036680
vt 0.673416 0.053504
vt 0.723654 0.036225
vt 0.722117 0.053132
vt 0.774879 0.045180
vt 0.770163 0.061432
vt 0.823303 0.064136
vt 0.815491 0.079147
vt 0.866997 0.092150
vt 0.856387 0.105279
vt 0.904174 0.128297
vt 0.891170 0.139047
vt 0.933412 0.171068
vt 0.918540 0.178993
vt 0.953467 0.218813
vt 0.937316 0.223597
vt 0.963573 0.269582
vt 0.946820 0.271073
vt 0.963573 0.321127
vt 0.946694 0.319599
vt 0.955109 0.372210
vt 0.938857 0.367651
vt 0.936668 0.420760
vt 0.921627 0.413053
vt 0.908832 0.464648
vt 0.895635 0.454084
vt 0.872809 0.502071
vt 0.861942 0.489117
vt 0.830246 0.531706
vt 0.822180 0.516887
vt 0.782632 0.552220
vt 0.777700 0.536092
vt 0.731883 0.562779
vt 0.730258 0.545988
vt 0.680079 0.563169
vt 0.681629 0.546281
vt 0.268411 0.959056
vt 0.266486 0.975793
vt 0.588278 0.520255
vt 0.580464 0.535265
vt 0.628883 0.554221
vt 0.633600 0.537976
vt 0.270313 0.942452
vt 0.226150 0.933317
vt 0.184766 0.915532
vt 0.147749 0.889792
vt 0.116406 0.857325
vt 0.092217 0.819265
vt 0.076125 0.777065
vt 0.068549 0.732172
vt 0.068525 0.686534
vt 0.077446 0.641987
vt 0.094746 0.600201
vt 0.120004 0.562800
vt 0.152126 0.531222
vt 0.189900 0.506754
vt 0.231822 0.490319
vt 0.276330 0.482509
vt 0.321557 0.482661
vt 0.365695 0.491756
vt 0.407074 0.509469
vt 0.444069 0.535134
vt 0.475270 0.567682
vt 0.499368 0.605881
vt 0.515682 0.648207
vt 0.523370 0.693130
vt 0.523410 0.738766
vt 0.514497 0.783304
vt 0.497200 0.825075
vt 0.471947 0.862458
vt 0.439832 0.894019
vt 0.402064 0.918474
vt 0.360141 0.934896
vt 0.315626 0.942689
vt 0.125855 0.915220
vt 0.136908 0.902493
vt 0.089924 0.877943
vt 0.103268 0.867657
vt 0.062186 0.834194
vt 0.077322 0.826792
vt 0.043786 0.785788
vt 0.060092 0.781528
vt 0.035135 0.734798
vt 0.052078 0.733514
vt 0.035128 0.682829
vt 0.051949 0.684670
vt 0.045406 0.631834
vt 0.061552 0.636912
vt 0.065352 0.583944
vt 0.080124 0.592091
vt 0.094421 0.541058
vt 0.107264 0.551969
vt 0.131375 0.504850
vt 0.141761 0.518089
vt 0.174811 0.476806
vt 0.182331 0.491848
vt 0.222955 0.458028
vt 0.227326 0.474244
vt 0.273704 0.449142
vt 0.274990 0.465966
vt 0.325348 0.449349
vt 0.323443 0.466061
vt 0.375999 0.459826
vt 0.370806 0.475832
vt 0.423518 0.480220
vt 0.415223 0.494857
vt 0.465983 0.509723
vt 0.454923 0.522421
vt 0.501786 0.547114
vt 0.488410 0.557358
vt 0.529410 0.590917
vt 0.514236 0.598343
vt 0.548063 0.639407
vt 0.531735 0.643727
vt 0.556816 0.690483
vt 0.539860 0.691786
vt 0.556816 0.742475
vt 0.539992 0.740635
vt 0.546536 0.793463
vt 0.530393 0.788385
vt 0.526588 0.841334
vt 0.511821 0.833188
vt 0.497524 0.884200
vt 0.484687 0.873291
vt 0.460578 0.920389
vt 0.450197 0.907153
vt 0.417152 0.948421
vt 0.409636 0.933380
vt 0.369011 0.967199
vt 0.364641 0.950976
vt 0.318229 0.976086
vt 0.316966 0.959248
vt 0.638250 0.521881
vt 0.595989 0.505391
vt 0.557866 0.481042
vt 0.525434 0.449597
vt 0.499916 0.412384
vt 0.482393 0.370831
vt 0.473497 0.326563
vt 0.473505 0.281150
vt 0.480886 0.236256
vt 0.496881 0.193936
vt 0.520946 0.155738
vt 0.552185 0.123144
vt 0.589295 0.097383
vt 0.630855 0.079556
vt 0.675215 0.070156
vt 0.720683 0.069743
vt 0.765508 0.077531
vt 0.807775 0.094012
vt 0.845895 0.118354
vt 0.878323 0.149791
vt 0.903836 0.186994
vt 0.921357 0.228535
vt 0.930252 0.272794
vt 0.930241 0.318197
vt 0.922805 0.363087
vt 0.906741 0.405409
vt 0.882536 0.443640
vt 0.851163 0.476310
vt 0.814113 0.502198
vt 0.772686 0.520110
vt 0.728471 0.529357
vt 0.683062 0.529686
vn -0.1951 0.0000 -0.9808
vn 0.0000 0.0000 -1.0000
vn 0.3827 0.0000 -0.9239
vn 0.5556 0.0000 -0.8315
vn 0.7071 0.0000 -0.7071
vn 0.8315 0.0000 -0.5556
vn 0.9239 0.0000 -0.3827
vn 0.9808 0.0000 -0.1951
vn 1.0000 0.0000 0.0000
vn 0.9808 0.0000 0.1951
vn 0.9239 0.0000 0.3827
vn 0.8315 0.0000 0.5556
vn 0.7071 0.0000 0.7071
vn 0.5556 0.0000 0.8315
vn 0.3827 0.0000 0.9239
vn 0.1951 0.0000 0.9808
vn -0.0000 0.0000 1.0000
vn -0.1951 0.0000 0.9808
vn -0.3827 0.0000 0.9239
vn -0.5556 0.0000 0.8315
vn -0.7071 0.0000 0.7071
vn -0.8315 0.0000 0.5556
vn -0.9239 0.0000 0.3827
vn -0.9808 0.0000 0.1951
vn -1.0000 0.0000 0.0000
vn -0.9808 0.0000 -0.1951
vn -0.9239 0.0000 -0.3827
vn -0.8315 0.0000 -0.5556
vn -0.7071 0.0000 -0.7071
vn -0.5556 0.0000 -0.8315
vn -0.3827 0.0000 -0.9239
vn 0.1951 0.0000 -0.9808
vn 0.0000 1.0000 -0.0000
vn 0.0000 -1.0000 -0.0000
vn -0.0000 -0.5527 -0.8334
vn 0.1626 -0.5527 -0.8174
vn 0.1626 0.5527 -0.8174
vn -0.0000 0.5527 -0.8334
vn 0.3189 -0.5527 -0.7699
vn 0.3189 0.5527 -0.7699
vn 0.4630 -0.5527 -0.6929
vn 0.4630 0.5527 -0.6929
vn 0.5893 -0.5527 -0.5893
vn 0.5893 0.5527 -0.5893
vn 0.6929 -0.5527 -0.4630
vn 0.6929 0.5527 -0.4630
vn 0.7699 -0.5527 -0.3189
vn 0.7699 0.5527 -0.3189
vn 0.8174 -0.5527 -0.1626
vn 0.8174 0.5527 -0.1626
vn 0.8334 -0.5527 0.0000
vn 0.8334 0.5527 0.0000
vn 0.8174 -0.5527 0.1626
vn 0.8174 0.5527 0.1626
vn 0.7699 -0.5527 0.3189
vn 0.7699 0.5527 0.3189
vn 0.6929 -0.5527 0.4630
vn 0.6929 0.5527 0.4630
vn 0.5893 -0.5527 0.5893
vn 0.5893 0.5527 0.5893
vn 0.4630 -0.5527 0.6929
vn 0.4630 0.5527 0.6929
vn 0.3189 -0.5527 0.7699
vn 0.3189 0.5527 0.7699
vn 0.1626 -0.5527 0.8174
vn 0.1626 0.5527 0.8174
vn -0.0000 -0.5527 0.8334
vn -0.0000 0.5527 0.8334
vn -0.1626 -0.5527 0.8174
vn -0.1626 0.5527 0.8174
vn -0.3189 -0.5527 0.7699
vn -0.3189 0.5527 0.7699
vn -0.4630 -0.5527 0.6929
vn -0.4630 0.5527 0.6929
vn -0.5893 -0.5527 0.5893
vn -0.5893 0.5527 0.5893
vn -0.6929 -0.5527 0.4630
vn -0.6929 0.5527 0.4630
vn -0.7699 -0.5527 0.3189
vn -0.7699 0.5527 0.3189
vn -0.8174 -0.5527 0.1626
vn -0.8174 0.5527 0.1626
vn -0.8334 -0.5527 0.0000
vn -0.8334 0.5527 -0.0000
vn -0.8174 -0.5527 -0.1626
vn -0.8174 0.5527 -0.1626
vn -0.7699 -0.5527 -0.3189
vn -0.7699 0.5527 -0.3189
vn -0.6929 -0.5527 -0.4630
vn -0.6929 0.5527 -0.4630
vn -0.5893 -0.5527 -0.5893
vn -0.5893 0.5527 -0.5893
vn -0.4630 -0.5527 -0.6929
vn -0.4630 0.5527 -0.6929
vn -0.3189 -0.5527 -0.7699
vn -0.3189 0.5527 -0.7699
vn -0.1626 -0.5527 -0.8174
vn -0.1626 0.5527 -0.8174
s 1
f 32/1/1 160/2/1 36/3/2 1/4/2
f 42/5/3 3/6/3 4/7/4 46/8/4
f 46/8/4 4/7/4 5/9/5 50/10/5
f 50/10/5 5/9/5 6/11/6 54/12/6
f 54/12/6 6/11/6 7/13/7 58/14/7
f 58/14/7 7/13/7 8/15/8 62/16/8
f 62/16/8 8/15/8 9/17/9 66/18/9
f 66/18/9 9/17/9 10/19/10 70/20/10
f 70/20/10 10/19/10 11/21/11 74/22/11
f 74/22/11 11/21/11 12/23/12 78/24/12
f 78/24/12 12/23/12 13/25/13 82/26/13
f 82/26/13 13/25/13 14/27/14 86/28/14
f 86/28/14 14/27/14 15/29/15 90/30/15
f 90/30/15 15/29/15 16/31/16 94/32/16
f 94/32/16 16/31/16 17/33/17 98/34/17
f 98/34/17 17/33/17 18/35/18 102/36/18
f 102/36/18 18/35/18 19/37/19 106/38/19
f 106/38/19 19/37/19 20/39/20 110/40/20
f 110/40/20 20/39/20 21/41/21 114/42/21
f 114/42/21 21/41/21 22/43/22 118/44/22
f 118/44/22 22/43/22 23/45/23 122/46/23
f 122/46/23 23/45/23 24/47/24 126/48/24
f 126/48/24 24/47/24 25/49/25 130/50/25
f 130/50/25 25/49/25 26/51/26 134/52/26
f 134/52/26 26/51/26 27/53/27 138/54/27
f 138/54/27 27/53/27 28/55/28 142/56/28
f 142/56/28 28/55/28 29/57/29 146/58/29
f 146/58/29 29/57/29 30/59/30 150/60/30
f 150/60/30 30/59/30 31/61/31 154/62/31
f 154/62/31 31/61/31 32/63/1 158/64/1
f 1/4/2 36/3/2 40/65/32 2/66/32
f 38/67/32 2/68/32 3/6/3 42/5/3
f 158/64/1 32/63/1 1/69/2 34/70/2
f 39/71/33 35/72/33 159/73/33 155/74/33 151/75/33 147/76/33 143/77/33 139/78/33 135/79/33 131/80/33 127/81/33 123/82/33 119/83/33 115/84/33 111/85/33 107/86/33 103/87/33 99/88/33 95/89/33 91/90/33 87/91/33 83/92/33 79/93/33 75/94/33 71/95/33 67/96/33 63/97/33 59/98/33 55/99/33 51/100/33 47/101/33 43/102/33
f 31/103/31 156/104/31 160/2/1 32/1/1
f 30/105/30 152/106/30 156/104/31 31/103/31
f 29/107/29 148/108/29 152/106/30 30/105/30
f 28/109/28 144/110/28 148/108/29 29/107/29
f 27/111/27 140/112/27 144/110/28 28/109/28
f 26/113/26 136/114/26 140/112/27 27/111/27
f 25/115/25 132/116/25 136/114/26 26/113/26
f 24/117/24 128/118/24 132/116/25 25/115/25
f 23/119/23 124/120/23 128/118/24 24/117/24
f 22/121/22 120/122/22 124/120/23 23/119/23
f 21/123/21 116/124/21 120/122/22 22/121/22
f 20/125/20 112/126/20 116/124/21 21/123/21
f 19/127/19 108/128/19 112/126/20 20/125/20
f 18/129/18 104/130/18 108/128/19 19/127/19
f 17/131/17 100/132/17 104/130/18 18/129/18
f 16/133/16 96/134/16 100/132/17 17/131/17
f 15/135/15 92/136/15 96/134/16 16/133/16
f 14/137/14 88/138/14 92/136/15 15/135/15
f 13/139/13 84/140/13 88/138/14 14/137/14
f 12/141/12 80/142/12 84/140/13 13/139/13
f 11/143/11 76/144/11 80/142/12 12/141/12
f 10/145/10 72/146/10 76/144/11 11/143/11
f 9/147/9 68/148/9 72/146/10 10/145/10
f 8/149/8 64/150/8 68/148/9 9/147/9
f 7/151/7 60/152/7 64/150/8 8/149/8
f 6/153/6 56/154/6 60/152/7 7/151/7
f 5/155/5 52/156/5 56/154/6 6/153/6
f 4/157/4 48/158/4 52/156/5 5/155/5
f 3/159/3 44/160/3 48/158/4 4/157/4
f 2/66/32 40/65/32 44/160/3 3/159/3
f 33/161/34 37/162/34 41/163/34 45/164/34 49/165/34 53/166/34 57/167/34 61/168/34 65/169/34 69/170/34 73/171/34 77/172/34 81/173/34 85/174/34 89/175/34 93/176/34 97/177/34 101/178/34 105/179/34 109/180/34 113/181/34 117/182/34 121/183/34 125/184/34 129/185/34 133/186/34 137/187/34 141/188/34 145/189/34 149/190/34 153/191/34 157/192/34
f 34/70/35 38/67/36 37/162/36 33/161/35
f 40/65/37 36/3/38 35/72/38 39/71/37
f 38/67/36 42/5/39 41/163/39 37/162/36
f 44/160/40 40/65/37 39/71/37 43/102/40
f 42/5/39 46/8/41 45/164/41 41/163/39
f 48/158/42 44/160/40 43/102/40 47/101/42
f 46/8/41 50/10/43 49/165/43 45/164/41
f 52/156/44 48/158/42 47/101/42 51/100/44
f 50/10/43 54/12/45 53/166/45 49/165/43
f 56/154/46 52/156/44 51/100/44 55/99/46
f 54/12/45 58/14/47 57/167/47 53/166/45
f 60/152/48 56/154/46 55/99/46 59/98/48
f 58/14/47 62/16/49 61/168/49 57/167/47
f 64/150/50 60/152/48 59/98/48 63/97/50
f 62/16/49 66/18/51 65/169/51 61/168/49
f 68/148/52 64/150/50 63/97/50 67/96/52
f 66/18/51 70/20/53 69/170/53 65/169/51
f 72/146/54 68/148/52 67/96/52 71/95/54
f 70/20/53 74/22/55 73/171/55 69/170/53
f 76/144/56 72/146/54 71/95/54 75/94/56
f 74/22/55 78/24/57 77/172/57 73/171/55
f 80/142/58 76/144/56 75/94/56 79/93/58
f 78/24/57 82/26/59 81/173/59 77/172/57
f 84/140/60 80/142/58 79/93/58 83/92/60
f 82/26/59 86/28/61 85/174/61 81/173/59
f 88/138/62 84/140/60 83/92/60 87/91/62
f 86/28/61 90/30/63 89/175/63 85/174/61
f 92/136/64 88/138/62 87/91/62 91/90/64
f 90/30/63 94/32/65 93/176/65 89/175/63
f 96/134/66 92/136/64 91/90/64 95/89/66
f 94/32/65 98/34/67 97/177/67 93/176/65
f 100/132/68 96/134/66 95/89/66 99/88/68
f 98/34/67 102/36/69 101/178/69 97/177/67
f 104/130/70 100/132/68 99/88/68 103/87/70
f 102/36/69 106/38/71 105/179/71 101/178/69
f 108/128/72 104/130/70 103/87/70 107/86/72
f 106/38/71 110/40/73 109/180/73 105/179/71
f 112/126/74 108/128/72 107/86/72 111/85/74
f 110/40/73 114/42/75 113/181/75 109/180/73
f 116/124/76 112/126/74 111/85/74 115/84/76
f 114/42/75 118/44/77 117/182/77 113/181/75
f 120/122/78 116/124/76 115/84/76 119/83/78
f 118/44/77 122/46/79 121/183/79 117/182/77
f 124/120/80 120/122/78 119/83/78 123/82/80
f 122/46/79 126/48/81 125/184/81 121/183/79
f 128/118/82 124/120/80 123/82/80 127/81/82
f 126/48/81 130/50/83 129/185/83 125/184/81
f 132/116/84 128/118/82 127/81/82 131/80/84
f 130/50/83 134/52/85 133/186/85 129/185/83
f 136/114/86 132/116/84 131/80/84 135/79/86
f 134/52/85 138/54/87 137/187/87 133/186/85
f 140/112/88 136/114/86 135/79/86 139/78/88
f 138/54/87 142/56/89 141/188/89 137/187/87
f 144/110/90 140/112/88 139/78/88 143/77/90
f 142/56/89 146/58/91 145/189/91 141/188/89
f 148/108/92 144/110/90 143/77/90 147/76/92
f 146/58/91 150/60/93 149/190/93 145/189/91
f 152/106/94 148/108/92 147/76/92 151/75/94
f 150/60/93 154/62/95 153/191/95 149/190/93
f 156/104/96 152/106/94 151/75/94 155/74/96
f 154/62/95 158/64/97 157/192/97 153/191/95
f 160/2/98 156/104/96 155/74/96 159/73/98
f 158/64/97 34/70/35 33/161/35 157/192/97
f 36/3/38 160/2/98 159/73/98 35/72/38
f 34/70/2 1/69/2 2/68/32 38/67/32
