# Blender v2.93.0 OBJ File: ''
# www.blender.org
o Plane
v -1.000000 0.000000 -1.000000
v -1.000000 0.000000 1.000000
v 1.000000 0.000000 1.000000
v 1.000000 0.000000 -1.000000
v -0.936573 -0.070768 -0.905692
v -0.881675 -0.100000 -0.881675
v -0.905692 -0.070768 -0.936573
v -0.912835 -0.091438 -0.891346
v -0.912324 -0.087645 -0.912323
v -0.891346 -0.091438 -0.912835
v -0.927528 -0.070768 -0.927528
v -0.936573 -0.070768 0.905692
v -0.905692 -0.070768 0.936573
v -0.881675 -0.100000 0.881675
v -0.927528 -0.070768 0.927528
v -0.912324 -0.087645 0.912324
v -0.891346 -0.091438 0.912835
v -0.912835 -0.091438 0.891346
v 0.905692 -0.070768 0.936573
v 0.936573 -0.070768 0.905692
v 0.881675 -0.100000 0.881675
v 0.927528 -0.070768 0.927528
v 0.912324 -0.087645 0.912324
v 0.912835 -0.091438 0.891346
v 0.891346 -0.091438 0.912835
v 0.936573 -0.070768 -0.905692
v 0.905692 -0.070768 -0.936573
v 0.881675 -0.100000 -0.881675
v 0.927528 -0.070768 -0.927528
v 0.912324 -0.087645 -0.912324
v 0.891346 -0.091438 -0.912835
v 0.912835 -0.091438 -0.891346
v -0.948648 0.000000 -0.917370
v -0.917370 0.000000 -0.948648
v -0.970766 0.000000 -0.970766
v -0.939487 0.000000 -0.939487
v -0.917370 0.000000 0.948648
v -0.948648 0.000000 0.917370
v -0.970766 0.000000 0.970766
v -0.939487 0.000000 0.939487
v 0.948648 0.000000 0.917370
v 0.917370 0.000000 0.948648
v 0.970766 0.000000 0.970766
v 0.939487 0.000000 0.939487
v 0.917370 0.000000 -0.948648
v 0.948648 0.000000 -0.917370
v 0.970766 0.000000 -0.970766
v 0.939487 0.000000 -0.939487
vt 0.928678 0.943294
vt 0.071322 0.943294
vt 0.071323 0.943294
vt 0.943294 0.071323
vt 0.943294 0.928677
vt 0.943294 0.928678
vt 0.071323 0.056706
vt 0.928678 0.056706
vt 0.928678 0.056706
vt 1.000000 1.000000
vt 0.000000 1.000000
vt 1.000000 0.000000
vt 0.000000 0.000000
vt 0.056706 0.071323
vt 0.928678 0.071323
vt 0.071323 0.928677
vt 0.071322 0.071323
vt 0.056706 0.928678
vt 0.058766 0.941235
vt 0.056706 0.943294
vt 0.071322 0.943294
vt 0.056706 0.928677
vt 0.056706 0.071323
vt 0.058766 0.058766
vt 0.056706 0.071322
vt 0.056706 0.056706
vt 0.071322 0.056706
vt 0.941235 0.058766
vt 0.928678 0.056706
vt 0.943294 0.056706
vt 0.943294 0.071322
vt 0.941234 0.941234
vt 0.943294 0.928677
vt 0.943294 0.943294
vt 0.928677 0.943294
vt 0.928678 0.928677
vt 0.056706 0.928677
vt 0.056706 0.939013
vt 0.046371 0.953629
vt 0.056706 0.943294
vt 0.071323 0.056706
vt 0.060987 0.056706
vt 0.046371 0.046371
vt 0.056706 0.056706
vt 0.943294 0.071323
vt 0.943294 0.060987
vt 0.953629 0.046371
vt 0.943294 0.056706
vt 0.928677 0.943294
vt 0.939013 0.943294
vt 0.953629 0.953629
vt 0.943294 0.943294
vt 0.943294 0.056706
vt 0.056706 0.943294
vt 0.056706 0.056706
vt 0.943294 0.943294
vn -0.1626 0.4943 0.8540
vn 0.2057 0.1975 0.9585
vn 0.1626 0.4943 0.8540
vn -0.8540 0.4943 -0.1626
vn -0.9585 0.1975 0.2057
vn -0.8540 0.4943 0.1626
vn 0.1626 0.4943 -0.8540
vn -0.2057 0.1975 -0.9585
vn -0.1626 0.4943 -0.8540
vn 0.0000 1.0000 0.0000
vn -0.1111 0.9876 -0.1111
vn 0.1111 0.9876 0.1111
vn 0.1111 0.9876 -0.1111
vn 0.8540 0.4943 0.1626
vn 0.3531 0.8664 0.3531
vn 0.6100 0.5059 0.6100
vn 0.0875 0.8946 0.4381
vn 0.4381 0.8946 0.0875
vn 0.8540 0.4943 -0.1626
vn 0.3531 0.8664 -0.3531
vn 0.4381 0.8946 -0.0875
vn 0.6100 0.5059 -0.6100
vn 0.0875 0.8946 -0.4381
vn -0.3531 0.8664 -0.3531
vn -0.0875 0.8946 -0.4381
vn -0.6100 0.5059 -0.6100
vn -0.4381 0.8946 -0.0875
vn -0.3531 0.8664 0.3531
vn -0.4381 0.8946 0.0875
vn -0.6100 0.5059 0.6100
vn -0.0875 0.8946 0.4381
vn -0.1111 0.9876 0.1111
vn -0.9585 0.1975 -0.2057
vn -0.6877 0.2324 -0.6877
vn 0.9585 0.1975 -0.2057
vn 0.2057 0.1975 -0.9585
vn 0.9585 0.1975 0.2057
vn 0.6877 0.2324 0.6877
vn -0.2057 0.1975 0.9585
vn 0.6877 0.2324 -0.6877
vn -0.6877 0.2324 0.6877
s 1
f 27/1/1 34/2/2 7/3/3
f 20/4/4 46/5/5 26/6/6
f 13/7/7 42/8/8 19/9/9
f 4/10/10 1/11/10 34/2/10
f 3/12/10 4/10/10 46/5/10
f 2/13/10 3/12/10 42/8/10
f 1/11/10 2/13/10 38/14/10
f 21/15/11 6/16/12 14/17/13
f 5/18/14 9/19/15 11/20/16
f 10/21/17 8/22/18 6/16/12
f 7/3/3 9/19/15 10/21/17
f 12/23/19 16/24/20 18/25/21
f 13/7/7 16/24/20 15/26/22
f 18/25/21 17/27/23 14/17/13
f 19/9/9 23/28/24 25/29/25
f 20/4/4 23/28/24 22/30/26
f 25/29/25 24/31/27 21/15/11
f 26/6/6 30/32/28 32/33/29
f 27/1/1 30/32/28 29/34/30
f 32/33/29 31/35/31 28/36/32
f 33/37/10 36/38/10 35/39/10
f 36/38/10 34/40/10 35/39/10
f 37/41/10 40/42/10 39/43/10
f 40/42/10 38/44/10 39/43/10
f 41/45/10 44/46/10 43/47/10
f 44/46/10 42/48/10 43/47/10
f 45/49/10 48/50/10 47/51/10
f 48/50/10 46/52/10 47/51/10
f 12/23/19 8/22/18 5/18/14
f 18/25/21 6/16/12 8/22/18
f 19/9/9 17/27/23 13/7/7
f 25/29/25 14/17/13 17/27/23
f 26/6/6 24/31/27 20/4/4
f 32/33/29 21/15/11 24/31/27
f 27/1/1 10/21/17 31/35/31
f 10/21/17 28/36/32 31/35/31
f 41/45/33 22/30/26 44/53/34
f 22/30/26 42/8/8 44/53/34
f 38/14/35 15/26/22 12/23/19
f 15/26/22 37/41/36 13/7/7
f 33/37/37 11/20/16 36/54/38
f 11/20/16 34/2/2 36/54/38
f 46/5/5 29/34/30 26/6/6
f 29/34/30 45/49/39 27/1/1
f 5/18/14 38/14/35 12/23/19
f 27/1/1 45/49/39 34/2/2
f 20/4/4 41/45/33 46/5/5
f 13/7/7 37/41/36 42/8/8
f 1/11/10 35/39/10 34/2/10
f 34/2/10 45/49/10 4/10/10
f 45/49/10 47/51/10 4/10/10
f 4/10/10 47/51/10 46/5/10
f 46/5/10 41/45/10 3/12/10
f 41/45/10 43/47/10 3/12/10
f 3/12/10 43/47/10 42/8/10
f 42/8/10 37/41/10 2/13/10
f 37/41/10 39/43/10 2/13/10
f 2/13/10 39/43/10 38/14/10
f 38/14/10 33/37/10 1/11/10
f 33/37/10 35/39/10 1/11/10
f 21/15/11 28/36/32 6/16/12
f 5/18/14 8/22/18 9/19/15
f 10/21/17 9/19/15 8/22/18
f 7/3/3 11/20/16 9/19/15
f 12/23/19 15/26/22 16/24/20
f 13/7/7 17/27/23 16/24/20
f 18/25/21 16/24/20 17/27/23
f 19/9/9 22/30/26 23/28/24
f 20/4/4 24/31/27 23/28/24
f 25/29/25 23/28/24 24/31/27
f 26/6/6 29/34/30 30/32/28
f 27/1/1 31/35/31 30/32/28
f 32/33/29 30/32/28 31/35/31
f 12/23/19 18/25/21 8/22/18
f 18/25/21 14/17/13 6/16/12
f 19/9/9 25/29/25 17/27/23
f 25/29/25 21/15/11 14/17/13
f 26/6/6 32/33/29 24/31/27
f 32/33/29 28/36/32 21/15/11
f 27/1/1 7/3/3 10/21/17
f 10/21/17 6/16/12 28/36/32
f 41/45/33 20/4/4 22/30/26
f 22/30/26 19/9/9 42/8/8
f 38/14/35 40/55/40 15/26/22
f 15/26/22 40/55/40 37/41/36
f 33/37/37 5/18/14 11/20/16
f 11/20/16 7/3/3 34/2/2
f 46/5/5 48/56/41 29/34/30
f 29/34/30 48/56/41 45/49/39
f 5/18/14 33/37/37 38/14/35
